<?xml version="1.0" encoding="UTF-8"?>
<svg version="1.1" xmlns="http://www.w3.org/2000/svg" width="384" height="384">
<path d="M0 0 C2.30444448 -0.00271446 4.60888809 -0.00627794 6.91333008 -0.01062012 C13.13640495 -0.0196922 19.35941306 -0.01622132 25.58248901 -0.00986195 C32.11554129 -0.00477503 38.64858811 -0.00950085 45.18164062 -0.01263428 C56.8509583 -0.01689685 68.52024805 -0.01030879 80.18956089 -0.0001156 C90.74357636 0.00881836 101.29754782 0.00726584 111.8515625 -0.00195312 C124.1440891 -0.01268585 136.43658769 -0.01662442 148.72911835 -0.0107286 C155.22282466 -0.00762119 161.71650074 -0.00716565 168.21020508 -0.01380157 C174.31703691 -0.01960699 180.42378616 -0.01551993 186.53060913 -0.00401306 C188.76296858 -0.00138351 190.99533506 -0.00210217 193.22769165 -0.00653839 C218.60000038 -0.0522851 243.95031665 2.43435639 263.43359375 20.62207031 C284.41684255 42.99352387 287.28590468 67.91980821 287.22753906 97.29003906 C287.23025352 99.59448354 287.233817 101.89892715 287.23815918 104.20336914 C287.24723126 110.42644401 287.24376038 116.64945213 287.23740101 122.87252808 C287.2323141 129.40558035 287.23703992 135.93862717 287.24017334 142.47167969 C287.24443591 154.14099736 287.23784785 165.81028712 287.22765467 177.47959995 C287.2187207 188.03361543 287.22027322 198.58758688 287.22949219 209.14160156 C287.24022491 221.43412816 287.24416348 233.72662676 287.23826766 246.01915741 C287.23516025 252.51286372 287.23470471 259.00653981 287.24134064 265.50024414 C287.24714605 271.60707597 287.24305899 277.71382522 287.23155212 283.82064819 C287.22892257 286.05300764 287.22964123 288.28537412 287.23407745 290.51773071 C287.27982417 315.89003944 284.79318267 341.24035571 266.60546875 360.72363281 C244.23401519 381.70688161 219.30773086 384.57594374 189.9375 384.51757812 C187.63305552 384.52029259 185.32861191 384.52385607 183.02416992 384.52819824 C176.80109505 384.53727032 170.57808694 384.53379944 164.35501099 384.52744007 C157.82195871 384.52235316 151.28891189 384.52707898 144.75585938 384.5302124 C133.0865417 384.53447497 121.41725195 384.52788691 109.74793911 384.51769373 C99.19392364 384.50875976 88.63995218 384.51031228 78.0859375 384.51953125 C65.7934109 384.53026397 53.50091231 384.53420254 41.20838165 384.52830672 C34.71467534 384.52519931 28.22099926 384.52474377 21.72729492 384.5313797 C15.62046309 384.53718511 9.51371384 384.53309805 3.40689087 384.52159119 C1.17453142 384.51896163 -1.05783506 384.51968029 -3.29019165 384.52411652 C-28.66250038 384.56986323 -54.01281665 382.08322173 -73.49609375 363.89550781 C-94.47934255 341.52405426 -97.34840468 316.59776992 -97.29003906 287.22753906 C-97.29275352 284.92309458 -97.296317 282.61865097 -97.30065918 280.31420898 C-97.30973126 274.09113411 -97.30626038 267.868126 -97.29990101 261.64505005 C-97.2948141 255.11199777 -97.29953992 248.57895096 -97.30267334 242.04589844 C-97.30693591 230.37658077 -97.30034785 218.70729101 -97.29015467 207.03797817 C-97.2812207 196.4839627 -97.28277322 185.92999124 -97.29199219 175.37597656 C-97.30272491 163.08344996 -97.30666348 150.79095137 -97.30076766 138.49842072 C-97.29766025 132.0047144 -97.29720471 125.51103832 -97.30384064 119.01733398 C-97.30964605 112.91050215 -97.30555899 106.8037529 -97.29405212 100.69692993 C-97.29142257 98.46457048 -97.29214123 96.232204 -97.29657745 93.99984741 C-97.34232417 68.62753868 -94.85568267 43.27722241 -76.66796875 23.79394531 C-54.29651519 2.81069651 -29.37023086 -0.05836561 0 0 Z " fill="#F9FCF9" transform="translate(97.03125,-0.2587890625)"/>
<path d="M0 0 C0.92513397 -0.00134949 1.85026794 -0.00269897 2.80343628 -0.00408936 C31.73580094 0.06260596 70.44809326 6.01059326 91.9375 27.5 C96.28728863 33.23333586 100.82288912 39.6687289 100.72265625 47.171875 C98.7353355 53.06462707 92.01462938 58.45261864 86.953125 61.8203125 C84.0050864 62.81441854 82.05372148 62.88795771 78.9375 62.5 C76.55270854 60.61540924 74.64128948 58.85933112 72.5859375 56.6640625 C71.71396225 55.7722377 71.71396225 55.7722377 70.82437134 54.86239624 C68.97232265 52.96361463 67.14178434 51.04570044 65.3125 49.125 C63.47277142 47.21503074 61.62879647 45.30944709 59.77920532 43.4090271 C58.63071913 42.22672491 57.48847941 41.03831444 56.35336304 39.84317017 C52.56537667 35.91325241 50.04243586 33.86431582 44.6875 32.9375 C40.73616758 33.53019986 40.03696731 33.95561623 37.23046875 36.515625 C36.53324707 37.15040771 35.83602539 37.78519043 35.11767578 38.43920898 C31.51975101 41.84011413 27.99094134 45.30203802 24.5 48.8125 C23.78134766 49.52728516 23.06269531 50.24207031 22.32226562 50.97851562 C21.29842773 52.00428711 21.29842773 52.00428711 20.25390625 53.05078125 C19.63974854 53.66606689 19.02559082 54.28135254 18.39282227 54.9152832 C16.0482924 57.46826816 15.28274079 59.89961581 15.34765625 63.390625 C16.7428997 68.38023735 21.36117845 71.95944167 24.9375 75.5 C25.9536115 76.51644098 26.96922517 77.53337982 27.984375 78.55078125 C29.92696025 80.49617415 31.88202458 82.42516601 33.84765625 84.34765625 C35.9375 86.5 35.9375 86.5 35.9375 87.5 C20.4123744 87.57015226 4.88726069 87.62301861 -10.63798618 87.65543652 C-17.84700896 87.67089035 -25.05593311 87.69195134 -32.26489258 87.72631836 C-38.54990438 87.75626633 -44.83484474 87.77558579 -51.11992592 87.78226548 C-54.4463453 87.78616866 -57.77251327 87.7968955 -61.09887886 87.81719017 C-64.81677485 87.83897121 -68.53424772 87.84196655 -72.25219727 87.84057617 C-73.34911896 87.851362 -74.44604065 87.86214783 -75.57620239 87.8732605 C-82.9339663 87.84349229 -87.90087891 87.07341252 -93.75 82.3125 C-99.83351374 74.91363194 -100.67499581 68.58606399 -100.5 59.125 C-100.51063477 57.51625 -100.51063477 57.51625 -100.52148438 55.875 C-100.42203379 43.29832559 -97.1157167 33.58177223 -88.1328125 24.5625 C-73.6271029 12.30107 -51.38601552 6.14254162 -33.0625 2.5 C-31.74004272 2.23509766 -31.74004272 2.23509766 -30.39086914 1.96484375 C-20.28992553 0.17184362 -10.22961891 0.01348182 0 0 Z " fill="#147AD3" transform="translate(154.0625,204.5)"/>
<path d="M0 0 C1.44971191 0.00858032 1.44971191 0.00858032 2.92871094 0.01733398 C16.34434511 0.35103946 26.96998559 5.5810743 36.69140625 14.8203125 C41.78998486 20.17927981 45.49215131 25.63306751 48.25 32.5 C48.61609375 33.36625 48.9821875 34.2325 49.359375 35.125 C50.60808301 39.85694615 50.57896395 44.37666979 50.5625 49.25 C50.57861328 50.1884375 50.59472656 51.126875 50.61132812 52.09375 C50.62032921 65.12731929 45.74384715 76.21176156 36.9921875 85.84765625 C25.04201814 97.18156127 10.97724933 101.14584631 -5.09765625 100.8359375 C-18.25631243 100.18778061 -29.36310547 92.4467347 -38.125 83.0625 C-48.44940611 70.79168946 -50.87167028 57.28350317 -49.75 41.5 C-46.81880095 26.79103127 -37.59867233 14.89541708 -25.3125 6.6875 C-17.25925881 1.51129459 -9.46629668 -0.06530191 0 0 Z " fill="#7ABBE5" transform="translate(153.75,91.5)"/>
<path d="M0 0 C11.62439914 7.16707041 20.63226486 18.44039693 24.0625 31.796875 C26.29879048 46.19299494 23.99388457 60.51003605 15.5 72.61328125 C7.36516915 83.01571602 -2.55410871 90.82842236 -15.80859375 93.20703125 C-19.69585579 93.63483575 -23.53137934 93.80452633 -27.4375 93.80078125 C-28.13681641 93.80142578 -28.83613281 93.80207031 -29.55664062 93.80273438 C-34.53654741 93.75168221 -38.79181404 93.18267657 -43.5 91.61328125 C-43.06429687 90.98164063 -42.62859375 90.35 -42.1796875 89.69921875 C-32.48762921 75.14015283 -26.89132938 59.93078188 -27 42.36328125 C-27.00572021 41.27571533 -27.01144043 40.18814941 -27.01733398 39.06762695 C-27.33156475 24.79181626 -31.63840106 13.5733441 -39.5 1.61328125 C-40.16128906 0.58847656 -40.16128906 0.58847656 -40.8359375 -0.45703125 C-41.7038006 -1.7803686 -42.59733028 -3.08687435 -43.5 -4.38671875 C-29.55645981 -10.18294831 -12.70936134 -7.04972387 0 0 Z " fill="#157BD3" transform="translate(255.5,98.38671875)"/>
<path d="M0 0 C2.30078125 1.49609375 2.30078125 1.49609375 4.3125 3.4375 C4.98925781 4.07558594 5.66601562 4.71367187 6.36328125 5.37109375 C8.99884418 7.99407643 8.99884418 7.99407643 9.5 10.5625 C8.95641661 14.29963583 8.42013588 15.00613559 5.97520447 17.69335938 C5.33658415 18.39686523 4.69796383 19.10037109 4.03999138 19.82519531 C0.70616411 23.37933934 -2.67897655 26.87676009 -6.10327148 30.34375 C-6.88148254 31.13495743 -7.6596936 31.92616486 -8.46148682 32.74134827 C-15.56942523 39.96019286 -22.70232998 47.15454141 -29.84368801 54.34031677 C-35.11082884 59.6407952 -40.36427831 64.95411662 -45.60075516 70.28489494 C-49.7456794 74.50190413 -53.91237543 78.69695586 -58.08680916 82.88476562 C-59.85393741 84.66415399 -61.6141558 86.45043241 -63.36724663 88.24365234 C-65.81560435 90.74528007 -68.28781893 93.22071139 -70.76733398 95.69140625 C-71.48498428 96.43624771 -72.20263458 97.18108917 -72.94203186 97.94850159 C-76.20840888 101.15532385 -78.55300752 103.43708711 -83.26696777 103.64237976 C-86.97480883 103.00433489 -88.36676048 102.63037543 -90.96118164 100.03051758 C-91.62272247 99.38813141 -92.28426331 98.74574524 -92.96585083 98.08389282 C-93.63712006 97.39620819 -94.30838928 96.70852356 -95 96 C-96.02684402 95.00533218 -96.02684402 95.00533218 -97.07443237 93.99057007 C-99.27922977 91.85265868 -101.45245058 89.68626995 -103.62109375 87.51171875 C-104.40646011 86.72730911 -105.19182648 85.94289948 -106.00099182 85.13471985 C-107.64503717 83.49135024 -109.28783953 81.84673625 -110.92944336 80.20092773 C-113.4511722 77.67379852 -115.97825164 75.15210712 -118.50585938 72.63085938 C-120.10709195 71.02896676 -121.70801471 69.42676437 -123.30859375 67.82421875 C-124.06579208 67.06904465 -124.82299042 66.31387054 -125.60313416 65.53581238 C-126.29798416 64.83781021 -126.99283417 64.13980804 -127.70874023 63.4206543 C-128.32192612 62.80667282 -128.935112 62.19269135 -129.56687927 61.56010437 C-132.16224457 58.73477315 -132.57788723 55.9958634 -132.54296875 52.17578125 C-131.43246395 47.72577281 -127.76556716 45.28672624 -124 43 C-121 42.125 -121 42.125 -118 43 C-112.90109361 46.72490802 -108.53836537 51.42446038 -104.14453125 55.93359375 C-103.63058807 56.45997437 -103.1166449 56.98635498 -102.58712769 57.52868652 C-100.44810933 59.72253877 -98.31052198 61.91727369 -96.19165039 64.13061523 C-94.62479836 65.76392971 -93.04259597 67.38096682 -91.45703125 68.99609375 C-90.98296341 69.49910507 -90.50889557 70.00211639 -90.02046204 70.52037048 C-87.93177228 72.62563623 -86.39377907 73.90415595 -83.48632812 74.61181641 C-79.89586372 73.72830268 -78.31651572 71.86344586 -75.76171875 69.21484375 C-75.27725784 68.72093643 -74.79279694 68.22702911 -74.2936554 67.71815491 C-72.74602648 66.13599633 -71.21638783 64.53775683 -69.6875 62.9375 C-68.16612229 61.36569256 -66.6411296 59.79753816 -65.11347961 58.23182678 C-63.71589307 56.79617452 -62.32774374 55.35135281 -60.94018555 53.90600586 C-58.81282081 51.74639783 -56.58786817 49.75786306 -54.28491211 47.78710938 C-49.17545425 43.36620941 -44.51635456 38.52830724 -39.8046875 33.69140625 C-37.85499356 31.70688694 -35.90179151 29.72582706 -33.94921875 27.74414062 C-30.89522724 24.64216417 -27.84616238 21.53570396 -24.81201172 18.41430664 C-22.33894498 15.87097847 -19.85146666 13.34256725 -17.35376358 10.82343864 C-15.95284684 9.40239826 -14.56779715 7.96577156 -13.18307495 6.52894592 C-11.9011174 5.24146706 -11.9011174 5.24146706 -10.59326172 3.92797852 C-9.84905975 3.16743668 -9.10485779 2.40689484 -8.33810425 1.62330627 C-5.3502438 -0.45111475 -3.56656355 -0.42324105 0 0 Z " fill="#38AB75" transform="translate(320,212)"/>
<path d="M0 0 C2.87484774 5.3706222 2.40754548 10.62743999 2.4375 16.625 C2.47037109 17.76324219 2.50324219 18.90148437 2.53710938 20.07421875 C2.58549514 27.73676404 1.48587582 33.65819096 -3 40 C-8.61924405 45.44922752 -13.62122447 46.12860154 -21.171875 46.09765625 C-22.1955014 46.09553383 -22.1955014 46.09553383 -23.23980713 46.09336853 C-25.40991684 46.08779084 -27.5799217 46.07524254 -29.75 46.0625 C-31.22525892 46.05748211 -32.70051947 46.05291971 -34.17578125 46.04882812 C-37.78388798 46.03782875 -41.39193375 46.02057953 -45 46 C-40.24863726 40.28299462 -35.15385413 35.02310577 -29.8828125 29.78515625 C-29.02565643 28.92941513 -28.16850037 28.07367401 -27.28536987 27.19200134 C-24.56760046 24.47979535 -21.84636109 21.7711017 -19.125 19.0625 C-17.27320658 17.21572631 -15.42164166 15.36872347 -13.5703125 13.52148438 C-9.04951565 9.01166799 -4.52587054 4.50472431 0 0 Z " fill="#157BD3" transform="translate(328,246)"/>
<path d="M0 0 C12.75502348 0.87034278 25.008018 3.60070679 37 8 C37 12 37 12 35.80664062 13.64746094 C35.26201172 14.17114258 34.71738281 14.69482422 34.15625 15.234375 C33.56972656 15.80800781 32.98320312 16.38164062 32.37890625 16.97265625 C31.75886719 17.55917969 31.13882812 18.14570313 30.5 18.75 C29.87996094 19.35199219 29.25992187 19.95398438 28.62109375 20.57421875 C27.08955179 22.05863634 25.54590226 23.53054345 24 25 C20.44426216 23.81475405 20.14479554 23.04049382 18.25 19.9375 C13.60270758 12.72618418 8.5617256 7.04393414 1.50390625 2.12890625 C1.00761719 1.75636719 0.51132813 1.38382813 0 1 C0 0.67 0 0.34 0 0 Z " fill="#1B7FD3" transform="translate(252,207)"/>
</svg>
